<svg xmlns="http://www.w3.org/2000/svg" fill="#d9d9d9" viewBox="0 0 96 88" width="96" height="88">
    <path transform="translate(0.599609)" d="M 94.2 14.2 C 93.6 13.4 92.7 13 91.7 13 H 23.5 L 21.2 2.50002 C 20.9 1.00002 19.6 2.44141e-005 18.1 2.44141e-005 H 3.19999 C 1.39999 2.44141e-005 -2.44141e-005 1.39998 -2.44141e-005 3.19998 C -2.44141e-005 4.99998 1.39999 6.39999 3.19999 6.39999 H 15.6 L 28.6 65.8 C 28.9 67.3 30.2 68.2999 31.7 68.2999 H 82.2 C 84 68.2999 85.4 66.9 85.4 65.1 C 85.4 63.3 84 61.9 82.2 61.9 H 34.3 L 32.7 54.6 H 83.8 C 85.3 54.6 86.6 53.6 86.9 52.1 L 94.9 16.9 C 95 16 94.8 15 94.2 14.2 Z" />
    <path transform="translate(68.5996 72)" d="M 7.60001 15.2 C 11.7974 15.2 15.2 11.7974 15.2 7.6 C 15.2 3.40264 11.7974 2.44141e-005 7.60001 2.44141e-005 C 3.40265 2.44141e-005 -2.44141e-005 3.40264 -2.44141e-005 7.6 C -2.44141e-005 11.7974 3.40265 15.2 7.60001 15.2 Z" />
    <path transform="translate(31.5 72)" d="M 7.59998 15.2 C 11.7973 15.2 15.2 11.7974 15.2 7.6 C 15.2 3.40264 11.7973 2.44141e-005 7.59998 2.44141e-005 C 3.40261 2.44141e-005 0 3.40264 0 7.6 C 0 11.7974 3.40261 15.2 7.59998 15.2 Z" />
</svg>