<svg width="492" height="462" viewBox="0 0 492 462" xmlns="http://www.w3.org/2000/svg">
    <g id="disk">
        <path d="M129.446 67.4309C126.721 56.7213 118.407 30.3015 114.803 23.7276C111.14 17.0482 107.369 12.1198 92.1114 9.54878C76.0985 6.85429 18.861 0.218071 18.2836 0.150318C18.1109 0.123558 3.46885 -1.60557 1.61789 7.37987C0.795133 11.3888 -0.0287306 17.8267 0.000769379 26.734C0.208374 21.3041 2.01344 17.1422 5.49736 14.4504C11.9336 9.48432 21.4829 11.4724 24.2724 12.1979C57.7442 19.2253 81.2509 34.4744 87.6551 38.9821C94.0049 43.4494 97.6146 58.3078 98.8766 64.4879C100.857 74.2152 93.4171 90.2389 84.9408 107.196C78.0462 120.978 68.6909 132.826 59.2706 139.696C56.4221 141.776 53.3413 142.632 50.2934 142.632C43.2687 142.632 36.4008 138.081 32.8563 133.505C6.7916 93.1711 1.35129 49.6234 0.218211 33.863C0.68696 42.9309 1.98776 53.9591 4.87127 67.3687C10.7902 94.9057 19.0605 119.122 40.1557 147.779C40.5174 148.237 47.7469 157.185 56.8701 157.476C64.6388 157.735 66.2308 156.289 74.5065 148.283C76.1472 146.697 78.0244 144.881 80.2364 142.812C93.1199 130.743 116.249 105.866 123.873 95.116C130.384 85.9497 132.046 77.6707 129.446 67.4309Z" transform="translate(84.0767 209.572)"/>
        <path d="M127.487 35.4379C123.188 25.5784 115.186 7.22405 106.371 2.49505C103.02 0.698747 94.6094 3.72398e-07 85.2755 3.72398e-07C72.9263 3.72398e-07 58.9475 1.2221 52.8669 2.74092C43.7219 5.02836 36.4066 21.694 31.5722 32.7216L31.1029 33.7897C26.0204 45.3516 12.2143 71.9986 8.38393 78.8419L6.74932 81.7314C4.2242 86.1714 3.11843e-07 93.6004 3.11843e-07 95.7289C3.11843e-07 101.753 1.89358 104.674 8.10311 108.227C9.26351 108.888 13.8707 110.863 31.6372 114.893C46.382 118.237 61.1487 119.554 75.5372 118.799C102.847 117.372 122.562 109.079 134.345 104.126C149.462 97.7683 147.272 89.1336 145.966 83.973C144.434 77.9383 133.557 49.3764 127.487 35.4379ZM132.106 86.0447C130.444 91.4992 114.518 104.566 78.0029 107.855C70.7301 108.51 63.8841 108.783 57.55 108.786C32.7703 108.786 15.678 104.591 10.3316 102.546C7.03513 101.286 4.73119 98.4643 4.00304 94.7985C3.25829 91.0217 4.33238 86.9942 6.68977 84.7739L7.13777 84.3532C10.0027 81.6555 13.574 78.3 22.519 64.3992C35.214 44.6097 54.2322 24.2568 54.8418 23.6094C57.8789 20.3047 63.2798 18.9586 73.471 18.9586C84.5958 18.9586 88.2595 21.6776 93.7785 26.4875C107.99 38.3837 124.531 62.3789 127.86 67.6766C131.949 74.1806 133.573 81.219 132.106 86.0447Z" transform="translate(207.958 318.468)"/>
        <path d="M54.7364 -1.63791e-07C49.2924 4.9109 34.9966 17.1246 18.185 25.9936C11.162 29.7005 5.10105 32.4982 -1.85666e-07 34.6693C24.9606 32.6501 45.1244 26.4831 52.8763 22.5026C61.4393 18.1107 61.9359 14.4072 61.9037 11.8083C61.2973 10.2824 60.5417 8.69532 59.5015 7.03994C58.6716 5.72056 56.9927 3.19871 54.7364 -1.63791e-07Z" transform="translate(271.643 382.045)"/>
        <path d="M9.60338e-09 11.4592C0.630452 11.4078 1.23798 11.3734 1.87608 11.316C22.5125 9.45796 35.81 4.38863 43.3641 -2.91836e-07C36.4323 3.53525 20.3594 8.68327 9.60338e-09 11.4592Z" transform="translate(283.597 409.505)"/>
        <path d="M10.464 0.0376799C10.2154 0.0136508 9.97286 -9.71009e-08 9.7303 -9.71009e-08C4.93902 -9.71009e-08 0.687496 4.67217 0.0728829 10.8036C-0.564134 17.2453 3.04545 22.9025 8.12792 23.4095C10.4908 23.6576 12.8646 22.7244 14.8013 20.8117C16.8784 18.7614 18.1951 15.8642 18.5185 12.6491V12.6463C18.837 9.43068 18.1197 6.3259 16.49 3.90621C14.9685 1.64825 12.8269 0.275347 10.464 0.0376799Z" transform="translate(227.156 202.084)"/>
        <path d="M61.2513 222.731C61.2513 120.774 121.041 33.6854 204.579 0.548511C200.142 0.202686 195.689 1.9707e-07 191.247 1.9707e-07C85.7939 -4.71986e-06 0 97.1936 0 216.659C0 331.634 79.4734 425.935 179.448 432.868C109.324 393.518 61.2513 314.125 61.2513 222.731Z" transform="translate(0.319336 8.22046)"/>
        <path d="M2.77508 18.6647C4.71737 20.7686 7.40411 21.9661 10.3341 22.0339C13.2525 22.0393 16.1552 21.0008 18.3885 18.9504C22.9586 14.7339 23.3902 7.74198 19.3545 3.36373C17.2828 1.12488 14.4397 -7.17586e-08 11.5425 -7.17586e-08C8.77976 -7.17586e-08 5.9689 1.02217 3.73552 3.08073C1.51251 5.136 0.190961 7.89824 0.0183169 10.8604C-0.148867 13.7843 0.832979 16.5575 2.77508 18.662V18.6647V18.6647Z" transform="translate(317.609 201.226)"/>
        <path d="M5.78166 22.1956C8.17184 23.1691 10.8745 23.0129 13.3942 21.7531C16.0378 20.4364 18.1527 18.0927 19.3502 15.1523V15.1496C20.5483 12.2087 20.6778 9.05534 19.7064 6.26635C18.7842 3.60356 16.9551 1.60238 14.5704 0.628264C13.5347 0.207594 12.4447 6.64501e-07 11.3334 6.64501e-07C9.87638 6.64501e-07 8.38764 0.358377 6.95791 1.07079C4.31423 2.38688 2.1994 4.73392 1.00131 7.67423C-0.196238 10.6173 -0.325638 13.7707 0.645642 16.5602C1.56784 19.2203 3.39695 21.2215 5.78166 22.1956Z" transform="translate(272.459 164.919)"/>
        <path d="M8.16288e-08 26.906C8.16288e-08 41.7426 11.033 53.8142 24.5912 53.8142C38.1494 53.8142 49.1824 41.7426 49.1824 26.906C49.1824 12.0689 38.1494 4.46557e-07 24.5912 4.46557e-07C11.033 4.46557e-07 8.16288e-08 12.0689 8.16288e-08 26.906Z" transform="translate(256.365 202.37)"/>
        <path d="M15.1256 2.26888C13.3562 0.782339 11.3057 3.95339e-07 9.23407 3.95339e-07C8.80795 3.95339e-07 8.37634 0.0349501 7.94475 0.102703C2.64649 0.952232 -0.838532 6.81159 0.17545 13.1615C0.677522 16.3122 2.19358 19.0881 4.44881 20.9789C6.59039 22.7758 9.12645 23.5308 11.6298 23.1451C14.1275 22.7457 16.3074 21.2193 17.7802 18.8482C19.3285 16.3472 19.9055 13.2369 19.3985 10.0863C18.8969 6.93559 17.3809 4.15972 15.1256 2.26888Z" transform="translate(244.936 261.292)"/>
        <path d="M3.65838 18.8805C8.2497 23.4713 15.3984 23.7761 19.5903 19.5896C23.7877 15.3895 23.4693 8.24354 18.8834 3.65767C16.4555 1.22979 13.3103 -1.49119e-07 10.2618 -1.49119e-07C7.55369 -1.49119e-07 4.92641 0.973573 2.95144 2.94854C-1.24589 7.14596 -0.927468 14.2919 3.65838 18.8805Z" transform="translate(300.639 260.089)"/>
        <path d="M9.80685 106.773C17.905 110.352 28.7272 115.958 41.255 122.449C52.4498 128.248 65.1339 134.822 77.6671 140.838C88.8133 146.319 97.1704 147.253 102.55 143.611C109.876 138.645 136.059 117.35 140.159 113.252C143.461 109.948 146.795 103.193 146.795 95.559C146.795 88.3671 141.562 52.7052 134.705 29.0394C132.773 19.6655 129.725 9.01 127.89 7.03504C125.689 4.67491 120.397 4.28418e-07 113.011 4.28418e-07C111.279 4.28418e-07 109.434 0.256226 107.486 0.86046L107.276 0.917282C106.957 0.989943 74.7104 8.54836 46.224 33.8034C17.5488 59.2228 0.629661 90.2662 0.462488 90.5765C0.251601 91.2971 -2.75319 101.227 9.80685 106.773ZM8.12316 78.2732C43.2294 35.7537 67.4918 22.5114 93.1189 15.7107C100.381 13.7767 106.391 14.6585 110.955 18.3167C117.586 23.6308 120.613 34.4316 119.965 50.4204C118.19 94.6204 111.894 102.664 108.867 106.53C106.995 108.963 105.026 110.167 103.122 111.332C101.514 112.314 99.9922 113.242 98.7515 114.693C95.514 118.47 88.8941 120.87 84.4055 120.87C83.8663 120.87 83.3533 120.835 82.8785 120.763C62.9977 119.446 35.2127 109.948 20.2844 104.844C17.7482 103.978 15.5793 103.236 13.8693 102.681C8.18262 100.827 4.76208 96.6194 4.24424 90.8272C3.83933 86.32 5.25322 81.7446 8.12316 78.2732Z" transform="translate(115.104 27.6523)"/>
        <path d="M12.0058 30.4883C5.36405 49.1366 -1.17438 72.681 0.179427 80.3176C1.87907 89.9182 4.85708 93.4414 11.4283 100.493L13.2361 102.432C21.4255 111.218 40.6108 131.793 47.8191 141.283C55.7659 151.752 57.6437 153.015 62.0459 150.976C67.4895 148.464 76.4241 139.346 82.9735 126.781C89.0808 115.057 102.348 77.3532 104.646 60.8979C107.656 39.3092 107.7 20.2725 107.7 20.0239C107.694 14.3378 106.297 4.13515 102.585 0.954983C101.824 0.307567 101.037 1.84865e-07 100.098 1.84865e-07C99.8549 1.84865e-07 99.5961 0.0185694 99.3316 0.0617303C88.1854 1.79359 39.7908 11.0844 30.7754 13.9007C21.8413 16.6925 15.5825 20.4424 12.0058 30.4883ZM85.8329 8.83737C87.0201 8.43254 88.2663 8.61337 89.313 9.33617C92.361 11.4379 93.316 19.0313 93.5749 25.0441C93.6345 25.9237 94.2442 36.9486 90.4565 57.7958C82.4719 102.16 65.1479 128.842 61.7547 133.741C59.1056 137.571 56.1762 139.681 53.295 139.84C53.1818 139.845 53.0682 139.848 52.9605 139.848C51.3259 139.848 49.8579 139.184 48.7899 137.957C27.7973 105.632 13.6245 74.898 12.8258 68.8343C12.0653 63.0449 16.489 49.142 21.5981 41.2864C27.5924 32.0606 85.2828 9.02093 85.8329 8.83737Z" transform="translate(357.345 204.856)"/>
        <path d="M212.456 -1.63158e-07C95.3055 -1.63158e-07 -2.17277e-07 103.603 -2.17277e-07 230.951C-2.17277e-07 358.298 95.3055 461.901 212.456 461.901C329.607 461.901 424.918 358.298 424.918 230.951C424.918 103.603 329.607 -1.63158e-07 212.456 -1.63158e-07ZM209.856 161.045C213.816 159.076 218.137 158.852 222.017 160.433C225.895 162.014 228.836 165.189 230.287 169.373C231.701 173.43 231.539 177.97 229.828 182.154C228.124 186.341 225.07 189.702 221.223 191.617C220.827 191.814 220.413 191.9 220.01 192.063C230.88 194.124 240.041 201.518 245.039 211.656C245.32 207.301 247.252 203.252 250.509 200.246C257.322 193.962 267.826 194.239 273.928 200.843C280.03 207.46 279.459 217.953 272.65 224.236C269.462 227.179 265.377 228.787 261.11 228.787C260.985 228.787 260.856 228.784 260.726 228.782C256.281 228.682 252.202 226.853 249.235 223.635C248.976 223.355 248.793 223.029 248.557 222.735C248.905 224.864 249.122 227.041 249.122 229.276C249.122 239.327 245.424 248.452 239.443 255.233C245.135 253.657 251.66 255.174 256.335 259.842C263.073 266.58 263.392 277.23 257.042 283.586C253.994 286.636 249.947 288.148 245.825 288.148C241.358 288.148 236.804 286.38 233.298 282.876C227.758 277.333 226.634 269.182 229.908 262.918C225.09 265.573 219.648 267.101 213.87 267.101C209.165 267.101 204.682 266.089 200.575 264.286C201.617 266.177 202.344 268.28 202.702 270.505C203.414 274.967 202.567 279.423 200.317 283.051C197.992 286.807 194.447 289.237 190.347 289.893C189.613 290.009 188.885 290.068 188.156 290.068C184.801 290.068 181.52 288.838 178.742 286.504C175.467 283.758 173.277 279.79 172.559 275.326C171.065 265.968 176.605 257.274 184.914 255.941C186.256 255.728 187.592 255.785 188.914 255.962C182.555 249.116 178.618 239.681 178.618 229.276C178.618 228.449 178.685 227.641 178.734 226.829C175.944 229.584 172.504 231.056 168.933 231.056C168.502 231.056 168.07 231.034 167.633 230.991C159.524 230.179 153.692 221.814 154.637 212.34C155.586 202.863 162.94 195.796 171.07 196.624C175.1 197.026 178.672 199.257 181.127 202.904C182.471 204.901 183.334 207.214 183.788 209.656C189.095 200.322 198.043 193.657 208.516 191.934C204.922 190.284 202.17 187.266 200.792 183.292C199.378 179.235 199.54 174.695 201.251 170.508C202.955 166.325 206.009 162.964 209.856 161.045ZM43.4313 115.985C44.2999 114.307 61.1219 83.4174 90.5579 57.3233C119.611 31.5673 151.496 23.7767 153.951 23.2046C167.164 19.1771 176.519 27.2562 179.94 30.9248C183.738 35.0118 187.374 52.0037 188.07 55.3679C194.749 78.4 200.322 114.569 200.322 123.212C200.322 131.315 197.085 139.794 192.068 144.811C187.698 149.181 161.3 170.651 153.649 175.839C150.536 177.951 146.916 179.009 142.751 179.009C137.242 179.009 130.779 177.161 123.253 173.46C110.671 167.42 97.9437 160.824 86.7167 155.009C74.2697 148.559 63.5176 142.988 55.5756 139.481C41.5268 133.274 41.4891 121.399 43.4313 115.985ZM100.998 356.415C98.8124 358.462 96.9565 360.259 95.3328 361.829C87.2073 369.682 84.197 372.595 75.1871 372.595C74.7013 372.595 74.1998 372.587 73.6819 372.568C61.7261 372.191 53.1101 361.179 52.7489 360.71L52.7161 360.661C31.0171 331.195 22.525 306.348 16.4499 278.102C9.30666 244.878 11.3461 224.832 13.1965 215.841C16.0724 201.854 35.1495 204.142 35.9373 204.239C36.482 204.304 93.8654 210.953 110.013 213.672C127.655 216.646 132.505 223.12 136.632 230.646C140.868 238.369 149.338 266.032 151.782 275.644C154.787 287.459 152.807 297.403 145.362 307.886C137.566 318.876 114.059 344.179 100.998 356.415ZM277.349 427.688C265.242 432.781 244.968 441.305 216.697 442.786C213.978 442.927 211.242 442.999 208.502 442.999C196.228 442.999 183.743 441.575 171.286 438.751C157.69 435.664 149.257 433.223 146.231 431.491C139.697 427.752 135.343 423.382 135.343 414.197C135.343 410.857 138.3 405.406 142.816 397.47L144.428 394.61C148.222 387.834 161.893 361.46 166.91 350.035L167.38 348.97C172.969 336.235 180.619 318.792 192.397 315.851C203.279 313.122 240.096 310.861 249.85 316.097C259.545 321.293 267.098 337.2 273.416 351.699C279.707 366.126 290.578 394.731 292.181 401.066C293.464 406.118 296.853 419.487 277.349 427.688ZM396.426 201.617C403.272 207.481 403.472 223.114 403.472 224.878C403.472 225.073 403.434 244.495 400.364 266.515C397.958 283.778 384.54 321.865 378.12 334.187C371.732 346.442 362.069 357.405 354.613 360.847C352.617 361.767 350.831 362.191 349.186 362.191C343.316 362.191 339.232 356.806 333.664 349.477C326.629 340.211 307.578 319.779 299.442 311.055L297.63 309.113C290.676 301.643 286.953 297.23 284.989 286.138C282.874 274.187 294.668 240.185 297.052 233.489C301.638 220.603 310.492 216.257 319.372 213.484C328.814 210.533 377.192 201.25 388.727 199.456C391.603 199.017 394.262 199.759 396.426 201.617ZM368.177 137.45C364.648 140.814 332.628 161.598 319.037 169.635C308.533 175.847 302.027 178.51 295.202 178.51C291.873 178.51 288.474 177.878 284.492 176.716C271.911 173.039 250.638 152.443 242.075 143.759C233.368 134.922 235.267 122.662 237.463 108.47C238.007 104.971 238.569 101.34 238.99 97.6039C240.619 83.1448 242.443 59.0983 243.532 44.7337L244.25 35.4167C244.482 32.4354 245.841 29.8862 248.167 28.0467C254.819 22.7916 267.563 24.5967 269.003 24.8152L269.106 24.8338C270.125 25.0332 294.419 30.0157 325.933 55.8427C351.991 77.2046 367.438 96.19 373.162 113.887C377.823 128.289 371.306 134.474 368.177 137.45Z" transform="translate(67.082)"/>
        <path d="M81.2849 30.2348C51.4872 5.81072 28.153 0.637016 26.95 0.383521C25.7039 0.197221 23.6054 -4.46826e-09 21.2694 -4.46826e-09C17.433 -4.46826e-09 12.939 0.528843 10.4466 2.50381C9.31353 3.40197 8.73061 4.50227 8.61205 5.97243L7.89963 15.2687C6.81027 29.6737 4.98117 53.782 3.34111 68.3432C2.9095 72.1576 2.3375 75.8645 1.78189 79.4331C-0.268477 92.6782 -1.88661 103.14 4.873 109.999C11.3153 116.536 33.2465 138.127 44.905 141.532C55.4257 144.609 60.7938 143.449 75.0803 135C89.9551 126.204 120.459 106.204 122.995 103.79C125.897 101.033 130.354 96.7975 126.766 85.7049C121.377 69.0474 106.502 50.9034 81.2849 30.2348ZM89.5339 109.142C76.4668 114.084 53.6506 117.566 43.7239 117.569C42.3914 117.569 41.296 117.504 40.4814 117.375C32.9066 116.164 19.4129 103.426 17.2118 98.5834C14.8325 93.3529 11.4448 58.1466 11.4448 42.9942C11.4448 31.5563 9.86914 24.9207 9.02234 21.3542C8.62845 19.6792 8.36403 18.5702 8.36403 17.5671C8.36403 14.2837 9.7129 12.4224 10.84 11.4379C13.063 9.49842 15.917 9.58747 16.7911 9.66833C24.49 9.70876 56.3648 27.1808 72.5879 40.4718C90.3108 54.9959 110.063 81.5911 111.325 90.1023C112.733 99.5898 103.184 103.978 89.5339 109.142Z" transform="translate(308.234 29.8812)"/>
        <path d="M55.1981 29.5956C37.0595 14.7344 7.39125 0.00819523 3.17251 -2.03939e-07L2.64366 0.134943L2.37932 0.0191211C2.31971 0.0136606 2.23885 0.00819539 2.14707 0.00819539C1.71054 0.00819539 0.987201 0.0890521 0.566554 0.467112C0.0972422 0.887782 -3.03307e-07 1.75917 -3.03307e-07 2.4175C-3.03307e-07 2.77588 0.258945 3.87127 0.512451 4.92896C1.2112 7.88076 2.37215 12.8572 2.85398 20.6194C6.40403 23.8062 20.0917 36.464 32.3223 52.7647C44.0563 68.4093 52.9521 87.4553 55.7127 93.649C62.2604 92.3406 68.7267 90.7021 73.6922 88.8233C88.3622 83.2748 92.6295 80.2236 91.9713 75.7645C91.0812 69.7543 73.4983 44.5939 55.1981 29.5956Z" transform="translate(322.127 45.0319)"/>
        <path d="M26.5695 120.145C26.5913 119.883 28.2909 119.411 30.584 116.096C33.864 111.362 50.6106 85.5591 58.3902 42.3141C62.1184 21.8044 61.4442 10.9981 61.4333 10.8899L61.4278 10.8173C61.2388 6.45265 60.5269 1.89629 59.7932 -2.05139e-07C52.851 2.64366 25.5877 14.2974 10.1551 22.6621C8.20744 52.0354 1.92035 68.8743 9.97152e-07 73.406C5.98774 85.6732 15.0114 102.32 26.5695 120.145Z" transform="translate(383.973 219.354)"/>
    </g>
</svg>