<svg width="138" height="60" viewBox="0 0 138 60" fill="none" xmlns="http://www.w3.org/2000/svg">
    <path d="M13.572 29L12.325 25.375H3.509L2.262 29H0.174L7.163 8.7H8.671L15.66 29H13.572ZM7.917 11.861L4.118 23.577H11.716L7.917 11.861ZM34.208 29H32.729L25.537 8.7H27.625L33.483 25.81L39.312 8.7H41.4L34.208 29ZM58.9926 10.498H53.5406V8.7H66.4746V10.498H60.9646V29H58.9926V10.498ZM88.7126 29.435C87.0886 29.435 85.6289 29.145 84.3336 28.565C83.0383 27.9657 81.9363 27.1827 81.0276 26.216C80.1383 25.23 79.4519 24.099 78.9686 22.823C78.5046 21.547 78.2726 20.2227 78.2726 18.85C78.2726 17.4773 78.5046 16.153 78.9686 14.877C79.4519 13.601 80.1383 12.4797 81.0276 11.513C81.9363 10.527 83.0383 9.744 84.3336 9.164C85.6289 8.56467 87.0886 8.265 88.7126 8.265C90.3366 8.265 91.7866 8.56467 93.0626 9.164C94.3579 9.744 95.4503 10.527 96.3396 11.513C97.2483 12.4797 97.9443 13.601 98.4276 14.877C98.9109 16.153 99.1526 17.4773 99.1526 18.85C99.1526 20.2227 98.9109 21.547 98.4276 22.823C97.9443 24.099 97.2483 25.23 96.3396 26.216C95.4503 27.1827 94.3579 27.9657 93.0626 28.565C91.7866 29.145 90.3366 29.435 88.7126 29.435ZM88.7126 27.637C90.0079 27.637 91.1679 27.3953 92.1926 26.912C93.2366 26.4093 94.1163 25.752 94.8316 24.94C95.5663 24.128 96.1269 23.2 96.5136 22.156C96.9003 21.0927 97.0936 19.9907 97.0936 18.85C97.0936 17.7093 96.9003 16.617 96.5136 15.573C96.1269 14.5097 95.5663 13.572 94.8316 12.76C94.1163 11.948 93.2366 11.3003 92.1926 10.817C91.1679 10.3143 90.0079 10.063 88.7126 10.063C87.3979 10.063 86.2186 10.3143 85.1746 10.817C84.1499 11.3003 83.2799 11.948 82.5646 12.76C81.8493 13.572 81.2983 14.5097 80.9116 15.573C80.5249 16.617 80.3316 17.7093 80.3316 18.85C80.3316 19.9907 80.5249 21.0927 80.9116 22.156C81.2983 23.2 81.8493 24.128 82.5646 24.94C83.2799 25.752 84.1499 26.4093 85.1746 26.912C86.2186 27.3953 87.3979 27.637 88.7126 27.637Z" transform="translate(3)" fill="white"/>
    <path d="M10.063 1.7H1.769V22H10.063C16.849 22 20.677 17.128 20.677 11.85C20.677 6.572 16.791 1.7 10.063 1.7ZM7.801 6.804H9.628C12.673 6.804 14.5 9.211 14.5 11.85C14.5 14.489 12.673 16.896 9.628 16.896H7.801V6.804ZM29.0075 1.7V22H35.0975V1.7H29.0075ZM49.6854 15.156H43.6534C43.6534 19.912 46.9304 22.551 52.0054 22.551C57.1094 22.551 60.2994 20.115 60.2994 15.91C60.2994 11.705 56.4424 10.4 52.9334 9.153C51.0774 8.486 50.1494 7.877 50.1494 6.833C50.1494 5.702 50.9904 5.238 52.0054 5.238C53.3394 5.238 54.0064 6.079 54.0064 7.761H60.0384C60.0384 4.571 58.0374 1.149 52.1214 1.149C48.0614 1.149 44.0884 2.86 44.0884 7.036C44.0884 11.183 47.4234 12.372 51.1644 13.851C53.2814 14.692 54.2384 15.156 54.2384 16.287C54.2384 17.36 53.4844 18.027 52.2374 18.027C50.7004 18.027 49.6854 17.012 49.6854 15.156ZM74.9315 13.735L80.5575 22H87.6335L80.1805 11.85L87.6335 1.7H80.5575L74.9315 9.994V1.7H68.8995V22H74.9315V13.735ZM95.2883 1.7V22H101.378V1.7H95.2883Z" transform="translate(0 33)" fill="white"/>
    <path fill-rule="evenodd" clip-rule="evenodd" d="M25 0H0V28H25V0ZM7.49609 15.8521V5.6001H10.0259V15.8521C10.0259 17.6121 11.1919 19.1079 13.0181 19.1079C14.844 19.1079 16.054 17.6121 16.054 15.8521V5.6001H18.584V15.8521C18.584 18.844 16.406 21.374 13.0181 21.374C9.69604 21.374 7.49609 18.844 7.49609 15.8521Z" transform="translate(113 5)" fill="#00BBF3"/>
    <path fill-rule="evenodd" clip-rule="evenodd" d="M25 0H0V26H25V0ZM18.4961 21H15.834L15.1741 19.042H9.38794L8.72803 21H6.06592L11.3899 5.6001H13.1721L18.4961 21ZM14.4041 16.7759L12.292 9.802L10.158 16.7759H14.4041Z" transform="translate(113 31)" fill="#FFD300"/>
</svg>
