<svg xmlns="http://www.w3.org/2000/svg" fill="#fbe11a" viewBox="0 0 82 82" width="82" height="82">
    <path transform="translate(0.0273438)" d="M 25.273 7.6125 C 27.031 9.3695 28.795 11.1215 30.545 12.8865 C 33.631 15.9995 33.637 19.6305 30.563 22.7195 C 28.358 24.9355 26.166 27.1645 23.918 29.3355 C 23.324 29.9085 23.277 30.3805 23.578 31.1025 C 25.054 34.6475 27.188 37.7865 29.589 40.7385 C 34.415 46.6715 39.873 51.9375 46.382 56.0235 C 47.776 56.8985 49.318 57.5355 50.77 58.3235 C 51.517 58.7285 52.029 58.5995 52.627 57.9815 C 54.826 55.7085 57.078 53.4855 59.325 51.2585 C 62.268 48.3425 65.962 48.3365 68.918 51.2645 C 72.53 54.8425 76.126 58.4375 79.707 62.0455 C 82.711 65.0715 82.687 68.7695 79.666 71.8175 C 77.625 73.8775 75.468 75.8325 73.538 77.9905 C 70.729 81.1315 67.205 82.1485 63.174 81.9265 C 57.315 81.6045 51.91 79.6605 46.705 77.1305 C 35.135 71.5075 25.244 63.7145 16.97 53.8655 C 10.852 46.5835 5.79601 38.6585 2.47101 29.7075 C 0.863014 25.3785 -0.286986 20.9445 0.0630144 16.2545 C 0.279014 13.3605 1.36601 10.8985 3.49901 8.8685 C 5.78901 6.6875 7.97101 4.3935 10.227 2.1755 C 13.181 -0.729497 16.876 -0.723497 19.837 2.1835 C 21.665 3.9775 23.462 5.8015 25.273 7.6125 Z" />
</svg>