<svg xmlns="http://www.w3.org/2000/svg" fill="#d9d9d9" viewBox="0 0 94 94" width="94" height="94">
    <path transform="translate(0.0966797)" d="M 92.633 86.978 L 68.872 63.217 C 74.489 56.325 77.546 47.784 77.546 38.774 C 77.546 28.417 73.513 18.68 66.19 11.357 C 58.866 4.033 49.128 -1.16348e-007 38.772 -1.16348e-007 C 28.416 -1.16348e-007 18.677 4.033 11.356 11.356 C 4.032 18.679 -1.16348e-007 28.416 -1.16348e-007 38.773 C -1.16348e-007 49.129 4.032 58.866 11.356 66.19 C 18.677 73.514 28.416 77.547 38.772 77.547 C 47.782 77.547 56.323 74.49 63.215 68.872 L 86.977 92.635 C 87.756 93.414 88.782 93.805 89.805 93.805 C 90.827 93.805 91.853 93.416 92.633 92.635 C 94.196 91.072 94.196 88.54 92.633 86.978 Z M 17.011 60.534 C 11.198 54.721 7.997 46.993 7.997 38.774 C 7.997 30.554 11.198 22.827 17.011 17.014 C 22.824 11.201 30.552 8 38.772 8 C 46.992 8 54.719 11.201 60.533 17.014 C 66.346 22.826 69.546 30.554 69.546 38.773 C 69.546 46.992 66.347 54.719 60.533 60.533 C 54.719 66.347 46.992 69.548 38.772 69.548 C 30.552 69.548 22.825 66.346 17.011 60.534 Z" />
</svg>