<svg xmlns="http://www.w3.org/2000/svg" viewBox="0 0 309 378" width="309" height="378">
    <g id="tire">
    <path d="M 130.693 0.00852904 C 126.877 -0.0378577 123.153 0.106918 119.502 0.395248 L 122.761 2.00169 C 129.379 0.712142 136.299 0.0764001 143.56 0.164291 C 148.327 0.222152 153.09 0.636703 157.886 1.30223 L 157.928 1.30272 C 162.56 0.720199 167.307 0.452133 172.236 0.511703 C 177.188 0.571761 182.165 1.02342 187.149 1.73704 C 191.557 1.16356 196.073 0.851303 200.745 0.857162 L 172.236 0.511703 L 143.56 0.164291 L 130.693 0.00852904 Z" />
    <path d="M 150.948 1.17796 C 142.336 1.07371 134.177 2.0056 126.479 3.85496 L 134 7.56224 C 141.198 4.61327 148.882 2.55174 157.001 1.45213 C 154.976 1.31541 152.965 1.20238 150.948 1.17796 Z" />
    <path d="M 179.624 1.52537 C 167.619 1.37987 156.516 3.24217 146.288 6.82713 L 177.031 3.58324 C 180.063 2.85277 183.174 2.28734 186.347 1.84788 C 184.109 1.68407 181.852 1.55247 179.624 1.52537 Z" />
    <path clip-rule="evenodd" fill-rule="evenodd" d="M 209.267 1.88451 C 192.014 1.67552 176.608 5.56883 163.03 12.8562 L 182.738 10.8847 L 184.879 11.1921 L 158.665 15.3345 C 152.112 19.3222 146.027 24.1484 140.39 29.6987 L 166.247 27.1191 L 168.428 27.467 L 137.876 32.28 C 132.74 37.6719 128.007 43.6785 123.675 50.269 L 151.131 47.508 L 153.314 47.8157 L 122.086 52.7812 C 118.178 58.9944 114.609 65.6743 111.39 72.7815 L 139.554 67.4172 L 110.393 74.9792 C 106.648 83.5378 103.379 92.6621 100.611 102.304 L 119.647 97.0701 L 98.9753 108.351 C 96.6668 117.206 94.7791 126.446 93.2673 136.005 L 114.576 127.424 L 92.3914 141.741 C 91.2712 149.758 90.407 157.98 89.8357 166.381 L 109.525 159.427 L 89.6257 169.392 C 89.2654 175.398 89.0447 181.503 88.9627 187.666 C 88.9295 190.184 88.9334 192.685 88.947 195.179 L 122.099 181.559 L 89.0193 199.319 C 89.1072 204.823 89.28 210.271 89.6013 215.64 L 118.771 197.832 L 89.8474 219.3 C 90.4412 227.774 91.323 236.068 92.5037 244.122 L 119.212 224.838 L 93.5896 251.007 C 94.8015 258.116 96.2576 265.023 97.9412 271.711 L 119.534 257.629 L 99.3015 276.912 C 101.012 283.13 102.942 289.124 105.077 294.902 L 124.185 284.205 L 106.907 299.585 C 108.846 304.455 110.899 309.147 113.154 313.644 L 128.579 301.696 L 115.124 317.405 C 117.203 321.296 119.418 325.007 121.746 328.574 L 131.03 316.633 L 123.724 331.612 C 127.326 336.824 131.23 341.655 135.392 346.058 L 141.981 334.405 L 137.841 348.538 C 142.174 352.838 146.782 356.703 151.691 360.077 L 158.708 351.081 L 156.751 359.053 L 155.193 362.369 C 169.309 371.17 185.664 376.118 204.296 376.344 C 204.918 376.351 205.539 376.335 206.161 376.32 C 206.492 376.311 206.824 376.303 207.156 376.298 C 262.802 367.231 307.162 287.671 308.454 190.332 C 309.746 92.9883 267.511 12.4153 212.124 2.01097 C 211.814 1.99901 211.506 1.98387 211.197 1.96873 L 211.125 1.96507 C 210.506 1.93431 209.886 1.90355 209.265 1.89598 L 209.267 1.88451 Z M 221.221 332.732 C 260.864 333.212 293.852 269.59 294.901 190.628 C 295.949 111.665 264.662 47.2646 225.016 46.7844 C 185.373 46.3042 152.385 109.926 151.337 188.889 C 150.289 267.851 181.576 332.252 221.221 332.732 Z" />
    <path d="M 114.742 0.860092 C 40.0222 9.86302 1.32301 89.3718 0.0329695 186.586 C -1.34594 290.5 40.5281 375.285 125.698 376.317 L 138.565 376.473 L 167.24 376.82 L 195.75 377.166 C 191.079 377.058 186.573 376.637 182.181 375.957 C 177.179 376.549 172.193 376.88 167.24 376.82 C 162.311 376.76 157.573 376.378 152.957 375.683 L 152.915 375.682 C 148.103 376.232 143.331 376.53 138.565 376.473 C 128.483 376.351 119.05 374.863 110.278 372.152 L 106.581 371.907 L 92.4822 369.486 L 104.166 370.029 C 99.1072 368.064 94.2595 365.653 89.6677 362.862 L 87.0222 362.589 L 70.5154 357.889 L 84.7058 359.628 C 79.864 356.252 75.3035 352.402 71.0232 348.131 L 64.5603 347.129 L 53.1189 344.097 L 68.866 345.936 C 64.7244 341.567 60.8728 336.771 57.281 331.612 L 51.4011 330.978 L 39.3933 326.293 L 54.8064 327.926 C 50.3757 321.102 46.3523 313.675 42.8211 305.722 L 41.1043 305.179 L 25.7937 298.967 L 41.4334 302.451 C 38.3377 295.098 35.6023 287.316 33.2478 279.168 L 20.6912 271.462 L 32.2439 275.58 C 30.0447 267.497 28.2224 259.042 26.7332 250.32 L 14.2761 241.531 L 26.1892 246.979 C 24.6668 237.407 23.5613 227.504 22.8816 217.327 L 21.7166 216.388 L 10.9148 200.065 L 22.4441 209.124 C 22.1345 202.115 21.9754 195.002 22.0545 187.784 L 10.158 171.528 L 22.2185 181.759 C 22.4509 172.803 22.9597 164.014 23.7879 155.42 L 21.7146 153.145 L 12.5437 140.699 L 24.2283 150.684 C 25.0545 143.185 26.1375 135.85 27.4216 128.704 L 21.6638 122.085 L 13.9646 112.871 L 28.1922 124.615 C 30.2918 113.805 32.9197 103.439 36.0886 93.6521 L 32.6199 88.8689 L 27.3279 78.8403 L 37.5779 89.1702 C 40.8279 79.7986 44.6013 70.9641 48.8621 62.7881 L 38.865 52.4211 L 50.7605 59.2351 C 66.5554 30.6333 88.8162 10.4941 117.446 3.18822 L 114.742 0.860092 Z" />
    <path d="M 120.146 5.59276 C 115.519 7.06126 111.097 8.9055 106.826 11.0566 L 116.716 16.8818 C 119.839 14.7495 123.081 12.7915 126.424 11.053 L 120.187 5.59325 L 120.146 5.59276 Z" />
    <path d="M 165.799 7.07005 L 134.19 12.0713 C 131.604 13.426 129.098 14.9248 126.645 16.52 L 151.448 14.0481 C 156.023 11.3271 160.785 8.97655 165.799 7.07005 Z" />
    <path d="M 103.311 12.9426 C 97.448 16.2219 91.9148 20.1277 86.7537 24.6352 L 98.9324 32.2964 C 102.99 27.9309 107.31 23.9387 111.875 20.3994 L 103.311 12.9426 Z" />
    <path d="M 146.275 17.3203 L 119.599 21.5373 C 115.211 24.9797 111.037 28.8183 107.125 33.0386 L 130.453 30.7095 C 135.369 25.6636 140.644 21.1748 146.275 17.3203 Z" />
    <path d="M 84.2039 26.9348 C 79.2742 31.529 74.7127 36.6758 70.4587 42.3181 L 83.742 52.323 C 87.2898 46.6409 91.1072 41.3347 95.2224 36.47 L 84.2039 26.9348 Z" />
    <path d="M 127.385 33.967 L 102.984 37.81 C 98.9763 42.6201 95.2595 47.8628 91.7996 53.4648 L 114.288 51.2058 C 118.297 44.9485 122.673 39.1938 127.385 33.967 Z" />
    <path d="M 68.3181 45.1448 C 64.1453 50.9941 60.322 57.3445 56.8377 64.1311 L 70.9187 77.3201 C 73.8826 70.2246 77.1638 63.5159 80.7742 57.2287 L 68.3181 45.1448 Z" />
    <path d="M 112.396 54.3174 L 89.0916 58.0129 C 85.3552 64.5522 81.9666 71.5285 78.9304 78.9441 L 101.908 74.5615 C 105.055 67.3789 108.564 60.6274 112.396 54.3174 Z" />
    <path d="M 54.5916 68.6848 C 50.5691 77.1047 47.0691 86.1431 44.0554 95.7187 L 59.825 111.581 C 62.2673 101.613 65.1921 92.1123 68.613 83.1587 L 54.5916 68.6848 Z" />
    <path d="M 100.693 77.4399 L 77.2341 83.2231 C 73.865 92.01 70.9578 101.345 68.5369 111.123 L 91.2878 104.889 C 93.9392 95.238 97.0818 86.0549 100.693 77.4399 Z" />
    <path d="M 42.1638 102.004 C 39.5525 111.158 37.3699 120.768 35.6423 130.733 L 53.613 145.537 C 54.5984 137.75 55.7888 130.138 57.28 122.759 L 42.1638 102.004 Z" />
    <path d="M 89.2039 112.9 L 65.9441 122.583 C 64.2302 131.011 62.865 139.729 61.8132 148.69 L 84.0955 139.718 C 85.4421 130.482 87.1267 121.513 89.2039 112.9 Z" />
    <path d="M 34.6755 136.99 C 33.656 143.669 32.8084 150.488 32.1755 157.452 L 51.1785 173.674 C 51.4441 168.101 51.822 162.6 52.323 157.174 L 34.6755 136.99 Z" />
    <path d="M 83.0681 147.42 L 60.6521 160.167 C 60.1853 165.711 59.8523 171.336 59.6297 177.03 L 81.0935 169.455 C 81.5398 161.966 82.1902 154.622 83.0681 147.42 Z" />
    <path d="M 31.6238 164.155 C 31.0838 171.628 30.7507 179.24 30.6482 186.965 C 30.6433 187.308 30.6492 187.648 30.656 187.989 L 30.658 188.083 C 30.6619 188.366 30.6668 188.649 30.6638 188.934 L 50.9578 206.176 C 50.738 199.937 50.6619 193.608 50.7468 187.209 C 50.7507 186.894 50.7654 186.582 50.781 186.27 C 50.7947 185.981 50.8084 185.692 50.8132 185.401 L 31.6238 164.155 Z" />
    <path d="M 80.865 174.113 L 59.3338 186.669 L 59.3259 187.312 C 59.2361 194.053 59.3162 200.724 59.5652 207.284 L 80.4119 198.697 C 80.3572 195.012 80.3416 191.305 80.3914 187.567 C 80.4519 183.037 80.6541 178.561 80.865 174.113 Z" />
    <path d="M 30.6541 196.045 C 30.7185 202.858 30.9363 209.577 31.3543 216.183 L 52.9548 233.2 C 52.2449 226.892 51.6863 220.432 51.3191 213.894 L 30.6541 196.045 Z" />
    <path d="M 80.5505 204.043 L 59.9988 215.808 C 60.3523 221.585 60.8308 227.266 61.4539 232.862 L 81.4236 220.688 C 81.0164 215.211 80.7127 209.669 80.5505 204.043 Z" />
    <path d="M 31.9968 224.79 C 32.7937 233.845 33.949 242.694 35.4304 251.23 L 57.4187 261.3 C 56.1629 255.326 55.074 249.206 54.1716 242.939 L 31.9968 224.79 Z" />
    <path d="M 81.8171 225.836 L 62.5945 241.957 C 63.6082 249.169 64.8728 256.194 66.3523 263.016 L 84.824 249.66 C 83.5408 241.923 82.5457 233.99 81.8171 225.836 Z" />
    <path d="M 36.4929 256.748 C 37.9802 264.415 39.7332 271.855 41.7908 278.991 L 64.2673 287.018 C 62.5398 281.73 60.9607 276.265 59.5642 270.648 L 36.4929 256.748 Z" />
    <path d="M 86.2351 257.391 L 68.5027 272.123 C 69.8836 277.535 71.4382 282.789 73.1306 287.889 L 90.6502 276.49 C 88.9666 270.325 87.5037 263.935 86.2351 257.391 Z" />
    <path d="M 92.4177 282.698 L 75.5613 294.83 C 77.283 299.467 79.1492 303.954 81.1443 308.277 L 98.0086 298.838 C 95.9685 293.647 94.1043 288.266 92.4177 282.698 Z" />
    <path d="M 43.0789 283.386 C 45.3738 290.79 47.9851 297.871 50.9138 304.576 L 73.1365 309.546 C 70.658 304.271 68.3992 298.773 66.3328 293.03 L 43.0789 283.386 Z" />
    <path d="M 100.167 304.087 L 84.1736 314.581 C 86.8416 319.788 89.7517 324.704 92.8503 329.351 L 107.043 318.394 C 104.575 313.833 102.294 309.061 100.167 304.087 Z" />
    <path d="M 52.8347 308.777 C 56.2019 315.97 59.9148 322.712 64.0486 328.922 L 85.4236 331.19 C 82.1697 326.445 79.1267 321.395 76.3308 316.052 L 52.8347 308.777 Z" />
    <path d="M 109.508 322.764 L 95.9861 333.89 C 99.4783 338.685 103.216 343.141 107.207 347.205 L 117.133 334.468 C 114.442 330.763 111.902 326.865 109.508 322.764 Z" />
    <path d="M 66.6482 332.651 C 70.3884 337.879 74.4148 342.685 78.7371 347.062 L 100.908 349.661 C 96.3513 345.253 92.1257 340.361 88.1912 335.042 L 66.6482 332.651 Z" />
    <path d="M 119.985 338.199 L 111.11 350.949 C 115.819 355.28 120.831 359.146 126.181 362.422 L 132.254 351.647 C 127.869 347.59 123.813 343.085 119.985 338.199 Z" />
    <path d="M 81.5183 349.827 C 85.9656 354.011 90.7654 357.735 95.7957 360.969 L 119.476 363.868 C 114.415 360.884 109.606 357.433 105.105 353.528 L 81.5183 349.827 Z" />
    <path d="M 135.913 354.866 L 132.486 365.914 C 136.016 367.71 139.656 369.295 143.442 370.627 L 148.661 363.94 C 144.196 361.273 139.94 358.257 135.913 354.866 Z" />
    <path d="M 101.054 364.087 C 105.686 366.648 110.513 368.836 115.603 370.571 L 136.113 371.543 C 132.091 370.154 128.224 368.523 124.487 366.62 L 101.054 364.087 Z" />
    <path d="M 153.296 366.527 L 150.395 372.76 C 158.006 374.775 166.096 375.884 174.66 375.987 C 176.889 376.014 179.148 375.937 181.39 375.828 C 171.262 374.173 161.899 371.019 153.296 366.527 Z" />
    <path d="M 124.57 373.09 C 131.348 374.659 138.471 375.549 145.985 375.64 C 148.002 375.665 150.015 375.6 152.043 375.513 C 150.376 375.245 148.717 374.956 147.092 374.609 L 124.57 373.09 Z" />
    <path d="M 291.324 190.727 C 290.292 268.512 258.502 331.193 220.322 330.731 C 203.172 330.523 187.649 317.61 175.846 296.399 L 176.356 296.64 C 216.442 211.633 193.092 121.129 176.371 86.3885 C 189.038 63.0211 205.82 48.8277 224.062 49.0487 C 262.243 49.5113 292.356 112.943 291.324 190.727 Z" />
    <path d="M 174.623 89.7223 C 190.901 125.129 212.174 211.899 174.404 293.731 C 172.804 290.681 171.275 287.475 169.828 284.122 C 180.688 259.534 187.491 227.344 187.96 192.044 C 188.444 155.507 182.059 122.138 171.191 96.9732 C 172.294 94.4764 173.438 92.0577 174.623 89.7223 Z" />
    </g>
</svg>